<svg width="13" height="12" viewBox="0 0 13 12" fill="none" xmlns="http://www.w3.org/2000/svg">
<path fill-rule="evenodd" clip-rule="evenodd" d="M0.000123978 5.99997C0.000123978 6.19888 0.0791416 6.38965 0.219793 6.5303C0.360446 6.67095 0.551212 6.74997 0.750124 6.74997H9.43962L6.21912 9.96897C6.14939 10.0387 6.09408 10.1215 6.05634 10.2126C6.0186 10.3037 5.99918 10.4014 5.99918 10.5C5.99918 10.5986 6.0186 10.6962 6.05634 10.7873C6.09408 10.8785 6.14939 10.9612 6.21912 11.031C6.28886 11.1007 6.37164 11.156 6.46275 11.1938C6.55386 11.2315 6.65151 11.2509 6.75012 11.2509C6.84874 11.2509 6.94639 11.2315 7.0375 11.1938C7.12861 11.156 7.21139 11.1007 7.28112 11.031L11.7811 6.53097C11.851 6.4613 11.9064 6.37854 11.9442 6.28742C11.982 6.1963 12.0015 6.09862 12.0015 5.99997C12.0015 5.90132 11.982 5.80364 11.9442 5.71252C11.9064 5.6214 11.851 5.53864 11.7811 5.46897L7.28112 0.968971C7.14029 0.828141 6.94929 0.749023 6.75012 0.749023C6.55096 0.749023 6.35995 0.828141 6.21912 0.968971C6.07829 1.1098 5.99918 1.30081 5.99918 1.49997C5.99918 1.69913 6.07829 1.89014 6.21912 2.03097L9.43962 5.24997H0.750124C0.551212 5.24997 0.360446 5.32899 0.219793 5.46964C0.0791416 5.61029 0.000123978 5.80106 0.000123978 5.99997Z" fill="white"/>
</svg>
