<svg width="20" height="16" viewBox="0 0 20 16" fill="none" xmlns="http://www.w3.org/2000/svg">
<path d="M19.6094 5.89355C18.7109 6.59668 17.5781 7.45605 13.5938 10.3467C12.8125 10.9326 11.3672 12.2217 10 12.2217C8.59375 12.2217 7.1875 10.9326 6.36719 10.3467C2.38281 7.45605 1.25 6.59668 0.351562 5.89355C0.195312 5.77637 0 5.89355 0 6.08887V14.0576C0 15.1123 0.820312 15.9326 1.875 15.9326H18.125C19.1406 15.9326 20 15.1123 20 14.0576V6.08887C20 5.89355 19.7656 5.77637 19.6094 5.89355ZM10 10.9326C10.8984 10.9717 12.1875 9.7998 12.8516 9.33105C18.0469 5.58105 18.4375 5.22949 19.6094 4.29199C19.8438 4.13574 20 3.8623 20 3.5498V2.80762C20 1.79199 19.1406 0.932617 18.125 0.932617H1.875C0.820312 0.932617 0 1.79199 0 2.80762V3.5498C0 3.8623 0.117188 4.13574 0.351562 4.29199C1.52344 5.22949 1.91406 5.58105 7.10938 9.33105C7.77344 9.7998 9.0625 10.9717 10 10.9326Z" fill="#444444"/>
</svg>
