<svg width="58" height="36" viewBox="0 0 58 36" fill="none" xmlns="http://www.w3.org/2000/svg">
<path d="M31.7695 21.0919H30.332V13.1857C30.332 12.8263 29.9727 12.4669 29.6133 12.4669H28.3555C27.9062 12.4669 27.5469 12.6466 27.1875 12.9161L25.75 13.8146C25.5703 13.9044 25.4805 14.174 25.4805 14.3536C25.4805 14.5333 25.4805 14.713 25.5703 14.8029L26.3789 15.9708C26.4688 16.1505 26.7383 16.3302 27.0078 16.3302C27.0977 16.3302 27.2773 16.2404 27.3672 16.1505H27.457V21.0919H26.0195C25.5703 21.0919 25.3008 21.4513 25.3008 21.8107V23.2482C25.3008 23.6974 25.5703 23.9669 26.0195 23.9669H31.7695C32.1289 23.9669 32.4883 23.6974 32.4883 23.2482V21.8107C32.4883 21.4513 32.1289 21.0919 31.7695 21.0919ZM54.7695 0.966919H3.01953C1.40234 0.966919 0.144531 2.31458 0.144531 3.84192V32.5919C0.144531 34.2091 1.40234 35.4669 3.01953 35.4669H54.7695C56.2969 35.4669 57.6445 34.2091 57.6445 32.5919V3.84192C57.6445 2.31458 56.2969 0.966919 54.7695 0.966919ZM4.45703 31.1544V25.4044C7.60156 25.4044 10.207 28.0099 10.207 31.1544H4.45703ZM4.45703 11.0294V5.27942H10.207C10.207 8.51379 7.60156 11.0294 4.45703 11.0294ZM28.8945 28.2794C24.043 28.2794 20.2695 23.7872 20.2695 18.2169C20.2695 12.7365 24.043 8.15442 28.8945 8.15442C33.6562 8.15442 37.5195 12.7365 37.5195 18.2169C37.5195 23.7872 33.6562 28.2794 28.8945 28.2794ZM53.332 31.1544H47.582C47.582 28.0099 50.0977 25.4044 53.332 25.4044V31.1544ZM53.332 11.0294C50.0977 11.0294 47.582 8.51379 47.582 5.27942H53.332V11.0294Z" fill="#51B329"/>
</svg>
