<svg width="42" height="47" viewBox="0 0 42 47" fill="none" xmlns="http://www.w3.org/2000/svg">
<path d="M39.9414 43.3427H38.1445V2.3739C38.1445 1.20593 37.1562 0.217651 35.9883 0.217651H5.80078C4.54297 0.217651 3.64453 1.20593 3.64453 2.3739V43.3427H1.84766C1.21875 43.3427 0.769531 43.8817 0.769531 44.4208V46.2177H41.0195V44.4208C41.0195 43.8817 40.4805 43.3427 39.9414 43.3427ZM12.2695 7.04578C12.2695 6.50671 12.7188 5.96765 13.3477 5.96765H16.9414C17.4805 5.96765 18.0195 6.50671 18.0195 7.04578V10.6395C18.0195 11.2684 17.4805 11.7177 16.9414 11.7177H13.3477C12.7188 11.7177 12.2695 11.2684 12.2695 10.6395V7.04578ZM12.2695 15.6708C12.2695 15.1317 12.7188 14.5927 13.3477 14.5927H16.9414C17.4805 14.5927 18.0195 15.1317 18.0195 15.6708V19.2645C18.0195 19.8934 17.4805 20.3427 16.9414 20.3427H13.3477C12.7188 20.3427 12.2695 19.8934 12.2695 19.2645V15.6708ZM16.9414 28.9677H13.3477C12.7188 28.9677 12.2695 28.5184 12.2695 27.8895V24.2958C12.2695 23.7567 12.7188 23.2177 13.3477 23.2177H16.9414C17.4805 23.2177 18.0195 23.7567 18.0195 24.2958V27.8895C18.0195 28.5184 17.4805 28.9677 16.9414 28.9677ZM23.7695 43.3427H18.0195V35.7958C18.0195 35.2567 18.4688 34.7177 19.0977 34.7177H22.6914C23.2305 34.7177 23.7695 35.2567 23.7695 35.7958V43.3427ZM29.5195 27.8895C29.5195 28.5184 28.9805 28.9677 28.4414 28.9677H24.8477C24.2188 28.9677 23.7695 28.5184 23.7695 27.8895V24.2958C23.7695 23.7567 24.2188 23.2177 24.8477 23.2177H28.4414C28.9805 23.2177 29.5195 23.7567 29.5195 24.2958V27.8895ZM29.5195 19.2645C29.5195 19.8934 28.9805 20.3427 28.4414 20.3427H24.8477C24.2188 20.3427 23.7695 19.8934 23.7695 19.2645V15.6708C23.7695 15.1317 24.2188 14.5927 24.8477 14.5927H28.4414C28.9805 14.5927 29.5195 15.1317 29.5195 15.6708V19.2645ZM29.5195 10.6395C29.5195 11.2684 28.9805 11.7177 28.4414 11.7177H24.8477C24.2188 11.7177 23.7695 11.2684 23.7695 10.6395V7.04578C23.7695 6.50671 24.2188 5.96765 24.8477 5.96765H28.4414C28.9805 5.96765 29.5195 6.50671 29.5195 7.04578V10.6395Z" fill="#51B329"/>
</svg>
