<svg width="42" height="41" viewBox="0 0 42 41" fill="none" xmlns="http://www.w3.org/2000/svg">
<path d="M41.0195 28.1239C41.0195 26.2372 38.6836 25.2489 37.3359 26.6864L34.0117 29.9208L24.3984 20.2177L34.0117 10.6044L37.3359 13.8387C38.6836 15.2762 41.0195 14.288 41.0195 12.3114V2.2489C41.0195 1.08093 40.0312 0.0926514 38.8633 0.0926514H28.8008C26.8242 0.0926514 25.8359 2.42859 27.2734 3.77625L30.5078 7.10046L20.8945 16.7137L11.1914 7.10046L14.5156 3.77625C15.8633 2.42859 14.875 0.0926514 12.9883 0.0926514H2.92578C2.83594 0.0926514 2.83594 0.0926514 2.83594 0.0926514C1.66797 0.0926514 0.769531 1.08093 0.769531 2.2489V12.3114C0.769531 14.288 3.01562 15.2762 4.45312 13.8387L7.6875 10.6044L17.3008 20.2177L7.6875 29.9208L4.45312 26.5966C3.01562 25.2489 0.769531 26.2372 0.769531 28.1239V38.1864C0.769531 38.2762 0.679688 38.2762 0.679688 38.2762C0.679688 39.4442 1.66797 40.3427 2.83594 40.3427H2.92578H12.9883C14.875 40.3427 15.8633 38.0966 14.5156 36.6591L11.1914 33.4247L20.8945 23.8114L30.5078 33.4247L27.2734 36.6591C25.8359 38.0966 26.8242 40.3427 28.8008 40.3427H38.8633V40.4325C40.0312 40.4325 41.0195 39.4442 41.0195 38.2762V38.1864V28.1239Z" fill="#51B329"/>
</svg>
